<mxfile host="app.diagrams.net" modified="2024-01-05T03:31:38.633Z" agent="Mozilla/5.0 (Windows NT 10.0; Win64; x64) AppleWebKit/537.36 (KHTML, like Gecko) Chrome/120.0.0.0 Safari/537.36" etag="v6w8wjRoXoo5A20MB8-m" version="22.1.16" type="github">
  <diagram name="第 1 页" id="JyfFjGAexfhLY6njlDLw">
    <mxGraphModel dx="1434" dy="780" grid="1" gridSize="10" guides="1" tooltips="1" connect="1" arrows="1" fold="1" page="1" pageScale="1" pageWidth="827" pageHeight="1169" math="0" shadow="0">
      <root>
        <mxCell id="0" />
        <mxCell id="1" parent="0" />
        <mxCell id="Br-GBwjzSDuLGPGi_v_d-4" value="" style="rounded=0;whiteSpace=wrap;html=1;" vertex="1" parent="1">
          <mxGeometry x="240" y="630" width="120" height="80" as="geometry" />
        </mxCell>
        <mxCell id="Br-GBwjzSDuLGPGi_v_d-5" value="" style="rounded=0;whiteSpace=wrap;html=1;" vertex="1" parent="1">
          <mxGeometry x="310" y="140" width="120" height="80" as="geometry" />
        </mxCell>
        <mxCell id="Br-GBwjzSDuLGPGi_v_d-7" value="" style="rounded=0;whiteSpace=wrap;html=1;" vertex="1" parent="1">
          <mxGeometry x="200" y="120" width="440" height="240" as="geometry" />
        </mxCell>
        <mxCell id="Br-GBwjzSDuLGPGi_v_d-8" value="" style="rounded=1;whiteSpace=wrap;html=1;" vertex="1" parent="1">
          <mxGeometry x="220" y="130" width="120" height="60" as="geometry" />
        </mxCell>
        <mxCell id="Br-GBwjzSDuLGPGi_v_d-12" value="" style="endArrow=none;html=1;rounded=0;" edge="1" parent="1">
          <mxGeometry width="50" height="50" relative="1" as="geometry">
            <mxPoint x="390" y="660" as="sourcePoint" />
            <mxPoint x="440" y="610" as="targetPoint" />
          </mxGeometry>
        </mxCell>
        <mxCell id="Br-GBwjzSDuLGPGi_v_d-14" value="" style="endArrow=none;html=1;rounded=0;" edge="1" parent="1">
          <mxGeometry width="50" height="50" relative="1" as="geometry">
            <mxPoint x="390" y="660" as="sourcePoint" />
            <mxPoint x="440" y="610" as="targetPoint" />
          </mxGeometry>
        </mxCell>
        <mxCell id="Br-GBwjzSDuLGPGi_v_d-23" value="" style="endArrow=none;html=1;rounded=0;" edge="1" parent="1">
          <mxGeometry width="50" height="50" relative="1" as="geometry">
            <mxPoint x="390" y="660" as="sourcePoint" />
            <mxPoint x="440" y="610" as="targetPoint" />
          </mxGeometry>
        </mxCell>
        <mxCell id="Br-GBwjzSDuLGPGi_v_d-25" value="" style="endArrow=none;html=1;rounded=0;" edge="1" parent="1">
          <mxGeometry width="50" height="50" relative="1" as="geometry">
            <mxPoint x="390" y="660" as="sourcePoint" />
            <mxPoint x="440" y="610" as="targetPoint" />
          </mxGeometry>
        </mxCell>
        <mxCell id="Br-GBwjzSDuLGPGi_v_d-28" value="" style="group;fillColor=#dae8fc;strokeColor=#6c8ebf;" vertex="1" connectable="0" parent="1">
          <mxGeometry x="225" y="160" width="110" height="20" as="geometry" />
        </mxCell>
        <mxCell id="Br-GBwjzSDuLGPGi_v_d-11" value="" style="rounded=0;whiteSpace=wrap;html=1;fillColor=#dae8fc;strokeColor=#6c8ebf;" vertex="1" parent="Br-GBwjzSDuLGPGi_v_d-28">
          <mxGeometry width="110" height="20" as="geometry" />
        </mxCell>
        <mxCell id="Br-GBwjzSDuLGPGi_v_d-18" style="edgeStyle=orthogonalEdgeStyle;rounded=0;orthogonalLoop=1;jettySize=auto;html=1;exitX=0.25;exitY=0;exitDx=0;exitDy=0;entryX=0.25;entryY=1;entryDx=0;entryDy=0;endArrow=none;endFill=0;" edge="1" parent="Br-GBwjzSDuLGPGi_v_d-28" source="Br-GBwjzSDuLGPGi_v_d-11" target="Br-GBwjzSDuLGPGi_v_d-11">
          <mxGeometry relative="1" as="geometry" />
        </mxCell>
        <mxCell id="Br-GBwjzSDuLGPGi_v_d-24" style="edgeStyle=orthogonalEdgeStyle;rounded=0;orthogonalLoop=1;jettySize=auto;html=1;exitX=0.75;exitY=0;exitDx=0;exitDy=0;entryX=0.75;entryY=1;entryDx=0;entryDy=0;endArrow=none;endFill=0;" edge="1" parent="Br-GBwjzSDuLGPGi_v_d-28" source="Br-GBwjzSDuLGPGi_v_d-11" target="Br-GBwjzSDuLGPGi_v_d-11">
          <mxGeometry relative="1" as="geometry" />
        </mxCell>
        <mxCell id="Br-GBwjzSDuLGPGi_v_d-26" style="edgeStyle=orthogonalEdgeStyle;rounded=0;orthogonalLoop=1;jettySize=auto;html=1;exitX=0.5;exitY=0;exitDx=0;exitDy=0;entryX=0.5;entryY=1;entryDx=0;entryDy=0;endArrow=none;endFill=0;" edge="1" parent="Br-GBwjzSDuLGPGi_v_d-28" source="Br-GBwjzSDuLGPGi_v_d-11" target="Br-GBwjzSDuLGPGi_v_d-11">
          <mxGeometry relative="1" as="geometry" />
        </mxCell>
        <mxCell id="Br-GBwjzSDuLGPGi_v_d-41" value="OLAP" style="text;html=1;strokeColor=none;fillColor=none;align=center;verticalAlign=middle;whiteSpace=wrap;rounded=0;" vertex="1" parent="1">
          <mxGeometry x="250" y="130" width="60" height="30" as="geometry" />
        </mxCell>
        <mxCell id="Br-GBwjzSDuLGPGi_v_d-42" value="" style="rounded=1;whiteSpace=wrap;html=1;" vertex="1" parent="1">
          <mxGeometry x="360" y="130" width="120" height="60" as="geometry" />
        </mxCell>
        <mxCell id="Br-GBwjzSDuLGPGi_v_d-43" value="" style="group;fillColor=#dae8fc;strokeColor=#6c8ebf;" vertex="1" connectable="0" parent="1">
          <mxGeometry x="365" y="160" width="110" height="20" as="geometry" />
        </mxCell>
        <mxCell id="Br-GBwjzSDuLGPGi_v_d-44" value="" style="rounded=0;whiteSpace=wrap;html=1;fillColor=#dae8fc;strokeColor=#6c8ebf;" vertex="1" parent="Br-GBwjzSDuLGPGi_v_d-43">
          <mxGeometry width="110" height="20" as="geometry" />
        </mxCell>
        <mxCell id="Br-GBwjzSDuLGPGi_v_d-45" style="edgeStyle=orthogonalEdgeStyle;rounded=0;orthogonalLoop=1;jettySize=auto;html=1;exitX=0.25;exitY=0;exitDx=0;exitDy=0;entryX=0.25;entryY=1;entryDx=0;entryDy=0;endArrow=none;endFill=0;" edge="1" parent="Br-GBwjzSDuLGPGi_v_d-43" source="Br-GBwjzSDuLGPGi_v_d-44" target="Br-GBwjzSDuLGPGi_v_d-44">
          <mxGeometry relative="1" as="geometry" />
        </mxCell>
        <mxCell id="Br-GBwjzSDuLGPGi_v_d-46" style="edgeStyle=orthogonalEdgeStyle;rounded=0;orthogonalLoop=1;jettySize=auto;html=1;exitX=0.75;exitY=0;exitDx=0;exitDy=0;entryX=0.75;entryY=1;entryDx=0;entryDy=0;endArrow=none;endFill=0;" edge="1" parent="Br-GBwjzSDuLGPGi_v_d-43" source="Br-GBwjzSDuLGPGi_v_d-44" target="Br-GBwjzSDuLGPGi_v_d-44">
          <mxGeometry relative="1" as="geometry" />
        </mxCell>
        <mxCell id="Br-GBwjzSDuLGPGi_v_d-47" style="edgeStyle=orthogonalEdgeStyle;rounded=0;orthogonalLoop=1;jettySize=auto;html=1;exitX=0.5;exitY=0;exitDx=0;exitDy=0;entryX=0.5;entryY=1;entryDx=0;entryDy=0;endArrow=none;endFill=0;" edge="1" parent="Br-GBwjzSDuLGPGi_v_d-43" source="Br-GBwjzSDuLGPGi_v_d-44" target="Br-GBwjzSDuLGPGi_v_d-44">
          <mxGeometry relative="1" as="geometry" />
        </mxCell>
        <mxCell id="Br-GBwjzSDuLGPGi_v_d-48" value="OLAP" style="text;html=1;strokeColor=none;fillColor=none;align=center;verticalAlign=middle;whiteSpace=wrap;rounded=0;" vertex="1" parent="1">
          <mxGeometry x="390" y="130" width="60" height="30" as="geometry" />
        </mxCell>
        <mxCell id="Br-GBwjzSDuLGPGi_v_d-64" value="" style="rounded=1;whiteSpace=wrap;html=1;" vertex="1" parent="1">
          <mxGeometry x="500" y="130" width="120" height="60" as="geometry" />
        </mxCell>
        <mxCell id="Br-GBwjzSDuLGPGi_v_d-65" value="" style="group;fillColor=#dae8fc;strokeColor=#6c8ebf;" vertex="1" connectable="0" parent="1">
          <mxGeometry x="505" y="160" width="110" height="20" as="geometry" />
        </mxCell>
        <mxCell id="Br-GBwjzSDuLGPGi_v_d-66" value="" style="rounded=0;whiteSpace=wrap;html=1;fillColor=#dae8fc;strokeColor=#6c8ebf;" vertex="1" parent="Br-GBwjzSDuLGPGi_v_d-65">
          <mxGeometry width="110" height="20" as="geometry" />
        </mxCell>
        <mxCell id="Br-GBwjzSDuLGPGi_v_d-67" style="edgeStyle=orthogonalEdgeStyle;rounded=0;orthogonalLoop=1;jettySize=auto;html=1;exitX=0.25;exitY=0;exitDx=0;exitDy=0;entryX=0.25;entryY=1;entryDx=0;entryDy=0;endArrow=none;endFill=0;" edge="1" parent="Br-GBwjzSDuLGPGi_v_d-65" source="Br-GBwjzSDuLGPGi_v_d-66" target="Br-GBwjzSDuLGPGi_v_d-66">
          <mxGeometry relative="1" as="geometry" />
        </mxCell>
        <mxCell id="Br-GBwjzSDuLGPGi_v_d-68" style="edgeStyle=orthogonalEdgeStyle;rounded=0;orthogonalLoop=1;jettySize=auto;html=1;exitX=0.75;exitY=0;exitDx=0;exitDy=0;entryX=0.75;entryY=1;entryDx=0;entryDy=0;endArrow=none;endFill=0;" edge="1" parent="Br-GBwjzSDuLGPGi_v_d-65" source="Br-GBwjzSDuLGPGi_v_d-66" target="Br-GBwjzSDuLGPGi_v_d-66">
          <mxGeometry relative="1" as="geometry" />
        </mxCell>
        <mxCell id="Br-GBwjzSDuLGPGi_v_d-69" style="edgeStyle=orthogonalEdgeStyle;rounded=0;orthogonalLoop=1;jettySize=auto;html=1;exitX=0.5;exitY=0;exitDx=0;exitDy=0;entryX=0.5;entryY=1;entryDx=0;entryDy=0;endArrow=none;endFill=0;" edge="1" parent="Br-GBwjzSDuLGPGi_v_d-65" source="Br-GBwjzSDuLGPGi_v_d-66" target="Br-GBwjzSDuLGPGi_v_d-66">
          <mxGeometry relative="1" as="geometry" />
        </mxCell>
      </root>
    </mxGraphModel>
  </diagram>
</mxfile>
